<mxfile host="Electron" modified="2025-03-29T14:27:45.042Z" agent="Mozilla/5.0 (Macintosh; Intel Mac OS X 10_15_7) AppleWebKit/537.36 (KHTML, like Gecko) draw.io/24.6.4 Chrome/124.0.6367.207 Electron/30.0.6 Safari/537.36" etag="KZzszTOROyc6hcQVHiHq" version="24.6.4" type="device">
  <diagram name="Page-1" id="-4s30_NfB5BfNS2urum-">
    <mxGraphModel dx="847" dy="457" grid="1" gridSize="10" guides="1" tooltips="1" connect="1" arrows="1" fold="1" page="1" pageScale="1" pageWidth="827" pageHeight="1169" math="0" shadow="0">
      <root>
        <mxCell id="0" />
        <mxCell id="1" parent="0" />
        <mxCell id="rnzmcxNd4AhUsYtAmFt_-2" value="Client" style="swimlane;fontStyle=0;childLayout=stackLayout;horizontal=1;startSize=30;horizontalStack=0;resizeParent=1;resizeParentMax=0;resizeLast=0;collapsible=1;marginBottom=0;whiteSpace=wrap;html=1;" vertex="1" parent="1">
          <mxGeometry x="120" y="260" width="140" height="120" as="geometry" />
        </mxCell>
        <mxCell id="rnzmcxNd4AhUsYtAmFt_-3" value="System" style="text;strokeColor=none;fillColor=none;align=left;verticalAlign=middle;spacingLeft=4;spacingRight=4;overflow=hidden;points=[[0,0.5],[1,0.5]];portConstraint=eastwest;rotatable=0;whiteSpace=wrap;html=1;" vertex="1" parent="rnzmcxNd4AhUsYtAmFt_-2">
          <mxGeometry y="30" width="140" height="30" as="geometry" />
        </mxCell>
        <mxCell id="rnzmcxNd4AhUsYtAmFt_-4" value="Human" style="text;strokeColor=none;fillColor=none;align=left;verticalAlign=middle;spacingLeft=4;spacingRight=4;overflow=hidden;points=[[0,0.5],[1,0.5]];portConstraint=eastwest;rotatable=0;whiteSpace=wrap;html=1;" vertex="1" parent="rnzmcxNd4AhUsYtAmFt_-2">
          <mxGeometry y="60" width="140" height="30" as="geometry" />
        </mxCell>
        <mxCell id="rnzmcxNd4AhUsYtAmFt_-5" value="App" style="text;strokeColor=none;fillColor=none;align=left;verticalAlign=middle;spacingLeft=4;spacingRight=4;overflow=hidden;points=[[0,0.5],[1,0.5]];portConstraint=eastwest;rotatable=0;whiteSpace=wrap;html=1;" vertex="1" parent="rnzmcxNd4AhUsYtAmFt_-2">
          <mxGeometry y="90" width="140" height="30" as="geometry" />
        </mxCell>
        <mxCell id="rnzmcxNd4AhUsYtAmFt_-6" value="Cloud (Immediate Eco System)" style="swimlane;whiteSpace=wrap;html=1;" vertex="1" parent="1">
          <mxGeometry x="360" y="190" width="200" height="260" as="geometry" />
        </mxCell>
        <mxCell id="rnzmcxNd4AhUsYtAmFt_-7" value="Microservice&lt;div&gt;login-service&lt;/div&gt;" style="ellipse;whiteSpace=wrap;html=1;aspect=fixed;" vertex="1" parent="rnzmcxNd4AhUsYtAmFt_-6">
          <mxGeometry x="14" y="40" width="90" height="90" as="geometry" />
        </mxCell>
        <mxCell id="rnzmcxNd4AhUsYtAmFt_-8" value="MongoDB" style="shape=cylinder3;whiteSpace=wrap;html=1;boundedLbl=1;backgroundOutline=1;size=15;" vertex="1" parent="rnzmcxNd4AhUsYtAmFt_-6">
          <mxGeometry x="130" y="160" width="60" height="80" as="geometry" />
        </mxCell>
        <mxCell id="rnzmcxNd4AhUsYtAmFt_-9" value="" style="endArrow=none;html=1;rounded=0;exitX=1;exitY=0.5;exitDx=0;exitDy=0;entryX=0.5;entryY=0;entryDx=0;entryDy=0;entryPerimeter=0;" edge="1" parent="rnzmcxNd4AhUsYtAmFt_-6" source="rnzmcxNd4AhUsYtAmFt_-7" target="rnzmcxNd4AhUsYtAmFt_-8">
          <mxGeometry width="50" height="50" relative="1" as="geometry">
            <mxPoint x="100" y="90" as="sourcePoint" />
            <mxPoint x="150" y="40" as="targetPoint" />
            <Array as="points">
              <mxPoint x="160" y="85" />
            </Array>
          </mxGeometry>
        </mxCell>
        <mxCell id="rnzmcxNd4AhUsYtAmFt_-16" value="1" style="ellipse;whiteSpace=wrap;html=1;aspect=fixed;fillColor=#529DFF;" vertex="1" parent="rnzmcxNd4AhUsYtAmFt_-6">
          <mxGeometry x="120" y="50" width="20" height="20" as="geometry" />
        </mxCell>
        <mxCell id="rnzmcxNd4AhUsYtAmFt_-19" value="ORM" style="ellipse;whiteSpace=wrap;html=1;aspect=fixed;fillColor=#529DFF;" vertex="1" parent="rnzmcxNd4AhUsYtAmFt_-6">
          <mxGeometry x="49" y="99" width="30" height="30" as="geometry" />
        </mxCell>
        <mxCell id="rnzmcxNd4AhUsYtAmFt_-10" value="" style="endArrow=none;html=1;rounded=0;entryX=0;entryY=0.5;entryDx=0;entryDy=0;" edge="1" parent="1" target="rnzmcxNd4AhUsYtAmFt_-6">
          <mxGeometry width="50" height="50" relative="1" as="geometry">
            <mxPoint x="260" y="320" as="sourcePoint" />
            <mxPoint x="310" y="270" as="targetPoint" />
          </mxGeometry>
        </mxCell>
        <mxCell id="rnzmcxNd4AhUsYtAmFt_-11" value="google-auth" style="swimlane;horizontal=0;whiteSpace=wrap;html=1;" vertex="1" parent="1">
          <mxGeometry x="660" y="190" width="140" height="120" as="geometry" />
        </mxCell>
        <mxCell id="rnzmcxNd4AhUsYtAmFt_-12" value="facebook-auth" style="swimlane;horizontal=0;whiteSpace=wrap;html=1;" vertex="1" parent="1">
          <mxGeometry x="660" y="320" width="140" height="120" as="geometry" />
        </mxCell>
        <mxCell id="rnzmcxNd4AhUsYtAmFt_-13" value="" style="endArrow=none;html=1;rounded=0;entryX=-0.015;entryY=0.3;entryDx=0;entryDy=0;entryPerimeter=0;" edge="1" parent="1" target="rnzmcxNd4AhUsYtAmFt_-14">
          <mxGeometry width="50" height="50" relative="1" as="geometry">
            <mxPoint x="560" y="250" as="sourcePoint" />
            <mxPoint x="630" y="250" as="targetPoint" />
          </mxGeometry>
        </mxCell>
        <mxCell id="rnzmcxNd4AhUsYtAmFt_-14" value="" style="swimlane;startSize=0;" vertex="1" parent="1">
          <mxGeometry x="640" y="160" width="180" height="300" as="geometry" />
        </mxCell>
        <mxCell id="rnzmcxNd4AhUsYtAmFt_-15" value="2" style="ellipse;whiteSpace=wrap;html=1;aspect=fixed;fillColor=#529DFF;" vertex="1" parent="1">
          <mxGeometry x="590" y="220" width="20" height="20" as="geometry" />
        </mxCell>
        <mxCell id="rnzmcxNd4AhUsYtAmFt_-17" value="&lt;b&gt;External System&lt;/b&gt;" style="text;html=1;align=center;verticalAlign=middle;whiteSpace=wrap;rounded=0;" vertex="1" parent="1">
          <mxGeometry x="680" y="130" width="110" height="30" as="geometry" />
        </mxCell>
        <mxCell id="rnzmcxNd4AhUsYtAmFt_-20" value="&lt;h1 style=&quot;margin-top: 0px;&quot;&gt;ORM&lt;/h1&gt;&lt;p&gt;Object Relational Mapping&lt;/p&gt;&lt;p&gt;C - Create&lt;/p&gt;&lt;p&gt;R - Read&lt;/p&gt;&lt;p&gt;U - Update&lt;/p&gt;&lt;p&gt;D - Delete&lt;/p&gt;&lt;p&gt;&lt;br&gt;&lt;/p&gt;&lt;p&gt;- Connecting to a DB: Host, userid, password as configuration&lt;/p&gt;&lt;p&gt;- What to store ? : Which column(field), which data&lt;/p&gt;&lt;p&gt;-&amp;nbsp;&lt;span style=&quot;background-color: initial;&quot;&gt;Which columns(fields) : Schema&lt;/span&gt;&lt;/p&gt;&lt;p&gt;&lt;span style=&quot;background-color: initial;&quot;&gt;&lt;span style=&quot;white-space: pre;&quot;&gt;&#x9;&lt;/span&gt;&lt;span style=&quot;white-space: pre;&quot;&gt;&#x9;&lt;/span&gt;student:&lt;br&gt;&lt;/span&gt;&lt;/p&gt;&lt;p&gt;&lt;span style=&quot;background-color: initial;&quot;&gt;&lt;span style=&quot;white-space: pre;&quot;&gt;&#x9;&lt;/span&gt;&lt;span style=&quot;white-space: pre;&quot;&gt;&#x9;&lt;/span&gt;&lt;span style=&quot;white-space: pre;&quot;&gt;&#x9;&lt;/span&gt;firstName:&lt;br&gt;&lt;/span&gt;&lt;/p&gt;&lt;p&gt;&lt;span style=&quot;background-color: initial;&quot;&gt;&lt;span style=&quot;white-space: pre;&quot;&gt;&#x9;&lt;/span&gt;&lt;span style=&quot;white-space: pre;&quot;&gt;&#x9;&lt;/span&gt;&lt;span style=&quot;white-space: pre;&quot;&gt;&#x9;&lt;/span&gt;&lt;span style=&quot;white-space: pre;&quot;&gt;&#x9;&lt;/span&gt;&lt;span style=&quot;white-space: pre;&quot;&gt;&#x9;&lt;/span&gt;type: string,&lt;br&gt;&lt;/span&gt;&lt;/p&gt;&lt;p&gt;&lt;span style=&quot;background-color: initial;&quot;&gt;&lt;span style=&quot;white-space: pre;&quot;&gt;&#x9;&lt;/span&gt;&lt;span style=&quot;white-space: pre;&quot;&gt;&#x9;&lt;/span&gt;&lt;span style=&quot;white-space: pre;&quot;&gt;&#x9;&lt;/span&gt;&lt;span style=&quot;white-space: pre;&quot;&gt;&#x9;&lt;/span&gt;&lt;span style=&quot;white-space: pre;&quot;&gt;&#x9;&lt;/span&gt;required (mandatory or not): true&lt;br&gt;&lt;/span&gt;&lt;/p&gt;&lt;p&gt;&lt;span style=&quot;background-color: initial;&quot;&gt;&lt;span style=&quot;white-space: pre;&quot;&gt;&#x9;&lt;/span&gt;&lt;span style=&quot;white-space: pre;&quot;&gt;&#x9;&lt;/span&gt;&lt;span style=&quot;white-space: pre;&quot;&gt;&#x9;&lt;/span&gt;&lt;span style=&quot;white-space: pre;&quot;&gt;&#x9;&lt;/span&gt;&lt;span style=&quot;white-space: pre;&quot;&gt;&#x9;&lt;/span&gt;index: true&lt;br&gt;&lt;/span&gt;&lt;/p&gt;&lt;p&gt;&lt;span style=&quot;background-color: initial;&quot;&gt;&lt;span style=&quot;white-space: pre;&quot;&gt;&#x9;&lt;/span&gt;&lt;span style=&quot;white-space: pre;&quot;&gt;&#x9;&lt;/span&gt;&lt;span style=&quot;white-space: pre;&quot;&gt;&#x9;&lt;/span&gt;createdAt:&lt;br&gt;&lt;/span&gt;&lt;/p&gt;&lt;p&gt;&lt;span style=&quot;background-color: initial;&quot;&gt;&lt;span style=&quot;white-space: pre;&quot;&gt;&#x9;&lt;/span&gt;&lt;span style=&quot;white-space: pre;&quot;&gt;&#x9;&lt;/span&gt;&lt;span style=&quot;white-space: pre;&quot;&gt;&#x9;&lt;/span&gt;&lt;span style=&quot;white-space: pre;&quot;&gt;&#x9;&lt;/span&gt;&lt;span style=&quot;white-space: pre;&quot;&gt;&#x9;&lt;/span&gt;type: date&lt;br&gt;&lt;/span&gt;&lt;/p&gt;&lt;p&gt;&lt;span style=&quot;background-color: initial;&quot;&gt;&lt;span style=&quot;white-space: pre;&quot;&gt;&#x9;&lt;/span&gt;&lt;span style=&quot;white-space: pre;&quot;&gt;&#x9;&lt;/span&gt;&lt;span style=&quot;white-space: pre;&quot;&gt;&#x9;&lt;/span&gt;&lt;span style=&quot;white-space: pre;&quot;&gt;&#x9;&lt;/span&gt;&lt;span style=&quot;white-space: pre;&quot;&gt;&#x9;&lt;/span&gt;required: true&lt;br&gt;&lt;/span&gt;&lt;/p&gt;&lt;p&gt;&lt;span style=&quot;background-color: initial;&quot;&gt;&lt;span style=&quot;white-space: pre;&quot;&gt;&#x9;&lt;/span&gt;&lt;span style=&quot;white-space: pre;&quot;&gt;&#x9;&lt;/span&gt;&lt;span style=&quot;white-space: pre;&quot;&gt;&#x9;&lt;/span&gt;&lt;span style=&quot;white-space: pre;&quot;&gt;&#x9;&lt;/span&gt;&lt;span style=&quot;white-space: pre;&quot;&gt;&#x9;&lt;/span&gt;index: true&lt;br&gt;&lt;/span&gt;&lt;/p&gt;&lt;p&gt;&lt;span style=&quot;background-color: initial;&quot;&gt;&lt;span style=&quot;white-space: pre;&quot;&gt;&#x9;&lt;/span&gt;&lt;span style=&quot;white-space: pre;&quot;&gt;&#x9;&lt;/span&gt;&lt;span style=&quot;white-space: pre;&quot;&gt;&#x9;&lt;/span&gt;&lt;span style=&quot;white-space: pre;&quot;&gt;&#x9;&lt;/span&gt;&lt;span style=&quot;white-space: pre;&quot;&gt;&#x9;&lt;/span&gt;default: now&lt;br&gt;&lt;/span&gt;&lt;/p&gt;&lt;p&gt;&lt;span style=&quot;background-color: initial;&quot;&gt;&lt;span style=&quot;white-space: pre;&quot;&gt;&#x9;&lt;/span&gt;&lt;span style=&quot;white-space: pre;&quot;&gt;&#x9;&lt;/span&gt;Input Data:&lt;br&gt;&lt;/span&gt;&lt;/p&gt;&lt;p&gt;&lt;span style=&quot;background-color: initial;&quot;&gt;&lt;span style=&quot;white-space: pre;&quot;&gt;&#x9;&lt;/span&gt;&lt;span style=&quot;white-space: pre;&quot;&gt;&#x9;&lt;/span&gt;&lt;span style=&quot;white-space: pre;&quot;&gt;&#x9;&lt;/span&gt;&lt;span style=&quot;white-space: pre;&quot;&gt;&#x9;&lt;/span&gt;&lt;font style=&quot;font-size: 10px;&quot;&gt;{&quot;firstName&quot;:&quot;Ravi&quot;, &quot;createdAt&quot;: &quot;&lt;/font&gt;&lt;/span&gt;&lt;font style=&quot;&quot;&gt;&lt;span style=&quot;color: rgb(32, 32, 32); font-family: Roboto, Helvetica, Arial, AppleGothic, sans-serif; letter-spacing: -0.3px; background-color: initial;&quot;&gt;&lt;font style=&quot;font-size: 10px;&quot;&gt;1997-07-16Z19:20:30.45&lt;/font&gt;&lt;/span&gt;&lt;span style=&quot;font-size: 12px; background-color: initial;&quot;&gt;&quot;}&lt;/span&gt;&lt;/font&gt;&lt;/p&gt;&lt;p&gt;&lt;font style=&quot;&quot;&gt;&lt;span style=&quot;font-size: 12px; background-color: initial;&quot;&gt;&lt;span style=&quot;white-space: pre;&quot;&gt;&#x9;&lt;/span&gt;&lt;span style=&quot;white-space: pre;&quot;&gt;&#x9;&lt;/span&gt;In DB, the ORM stores as:&lt;br&gt;&lt;/span&gt;&lt;/font&gt;&lt;/p&gt;&lt;p&gt;&lt;font style=&quot;&quot;&gt;&lt;span style=&quot;font-size: 12px; background-color: initial;&quot;&gt;&lt;span style=&quot;white-space: pre;&quot;&gt;&#x9;&lt;/span&gt;&lt;span style=&quot;white-space: pre;&quot;&gt;&#x9;&lt;/span&gt;&lt;span style=&quot;white-space: pre;&quot;&gt;&#x9;&lt;/span&gt;datebase: college&lt;br&gt;&lt;/span&gt;&lt;/font&gt;&lt;/p&gt;&lt;p&gt;&lt;font style=&quot;&quot;&gt;&lt;span style=&quot;font-size: 12px; background-color: initial;&quot;&gt;&lt;span style=&quot;white-space: pre;&quot;&gt;&#x9;&lt;/span&gt;&lt;span style=&quot;white-space: pre;&quot;&gt;&#x9;&lt;/span&gt;&lt;span style=&quot;white-space: pre;&quot;&gt;&#x9;&lt;/span&gt;&lt;span style=&quot;white-space: pre;&quot;&gt;&#x9;&lt;/span&gt;collection: student&lt;br&gt;&lt;/span&gt;&lt;/font&gt;&lt;/p&gt;&lt;p&gt;&lt;font style=&quot;&quot;&gt;&lt;span style=&quot;font-size: 12px; background-color: initial;&quot;&gt;&lt;span style=&quot;white-space: pre;&quot;&gt;&#x9;&lt;/span&gt;&lt;span style=&quot;white-space: pre;&quot;&gt;&#x9;&lt;/span&gt;&lt;span style=&quot;white-space: pre;&quot;&gt;&#x9;&lt;/span&gt;&lt;span style=&quot;white-space: pre;&quot;&gt;&#x9;&lt;/span&gt;&lt;span style=&quot;white-space: pre;&quot;&gt;&#x9;&lt;/span&gt;document: Entire Input data&lt;br&gt;&lt;/span&gt;&lt;/font&gt;&lt;/p&gt;" style="text;html=1;whiteSpace=wrap;overflow=hidden;rounded=0;" vertex="1" parent="1">
          <mxGeometry x="160" y="430" width="380" height="750" as="geometry" />
        </mxCell>
        <mxCell id="rnzmcxNd4AhUsYtAmFt_-21" value="RESTful&lt;div&gt;GraphQL&lt;/div&gt;" style="text;html=1;align=center;verticalAlign=middle;whiteSpace=wrap;rounded=0;" vertex="1" parent="1">
          <mxGeometry x="570" y="260" width="60" height="30" as="geometry" />
        </mxCell>
      </root>
    </mxGraphModel>
  </diagram>
</mxfile>
